# xmcd
#
# Track frame offsets: 
#        150
#        11086
#        23199
#        33428
#        50635
#        64104
#        76437
#        93485
#        105704
#        116256
#        126291
#        142846
#
# Disc length: 2070 seconds
#
# Revision: 0
# Processed by: cddbd v1.5.2PL0 Copyright (c) Steve Scherf et al.
# Submitted via: ExactAudioCopy v1.0b1
#
DISCID=9b08140c
DTITLE=Dailey and Vincent - Sing The Statler Brothers
DYEAR=2010
DGENRE=Bluegrass
TTITLE0=Flowers On The Wall
TTITLE1=Class Of '57
TTITLE2=Hello Mary Lou
TTITLE3=Too Much On My Heart
TTITLE4=Susan When She Tried
TTITLE5=I'll Go To My Grave Lovin' You
TTITLE6=Elizabeth
TTITLE7=Bed Of Roses
TTITLE8=Do You Know You Are My Sunshine
TTITLE9=The Brave Apostles Twelve
TTITLE10=My Only Love
TTITLE11=Thank You World
EXTD=
EXTT0=
EXTT1=
EXTT2=
EXTT3=
EXTT4=
EXTT5=
EXTT6=
EXTT7=
EXTT8=
EXTT9=
EXTT10=
EXTT11=
PLAYORDER=
